<svg width="320" height="180" viewBox="0 0 320 180" fill="none" xmlns="http://www.w3.org/2000/svg">
<rect width="320" height="180" fill="url(#paint0_linear_0_1)"/>
<path d="M104.79 82.1656H139.867V88.0653H104.79V82.1656ZM118.842 63.2326H125.761V102.278C125.761 103.423 125.833 104.263 125.976 104.799C126.119 105.336 126.423 105.711 126.888 105.926C127.388 106.104 128.121 106.194 129.087 106.194C129.373 106.194 129.802 106.194 130.374 106.194C130.982 106.194 131.661 106.194 132.412 106.194C133.163 106.194 133.896 106.194 134.611 106.194C135.362 106.194 136.041 106.194 136.649 106.194C137.257 106.194 137.686 106.194 137.936 106.194C138.866 106.194 139.563 105.979 140.028 105.55C140.529 105.121 140.886 104.334 141.101 103.19C141.351 102.046 141.548 100.437 141.691 98.3631C142.513 98.9352 143.532 99.4894 144.748 100.026C145.999 100.526 147.108 100.884 148.073 101.098C147.787 103.923 147.322 106.194 146.679 107.91C146.035 109.591 145.07 110.806 143.782 111.557C142.531 112.308 140.815 112.683 138.633 112.683C138.276 112.683 137.74 112.683 137.024 112.683C136.345 112.683 135.576 112.683 134.718 112.683C133.86 112.683 133.002 112.683 132.144 112.683C131.286 112.683 130.517 112.683 129.837 112.683C129.194 112.683 128.711 112.683 128.389 112.683C125.922 112.683 123.991 112.38 122.597 111.772C121.202 111.164 120.219 110.109 119.647 108.607C119.111 107.106 118.842 104.978 118.842 102.225V63.2326ZM105.863 70.6878H142.817V99.3822H105.863V93.0533H136.274V76.963H105.863V70.6878ZM101.787 70.6878H108.437V102.493H101.787V70.6878ZM172.691 65.3244H199.294V93.9115H192.804V70.9023H178.859V93.9115H172.691V65.3244ZM185.027 93.7506H190.981V106.033C190.981 106.748 191.088 107.249 191.302 107.535C191.517 107.785 191.892 107.91 192.429 107.91H194.949C195.414 107.91 195.772 107.695 196.022 107.266C196.272 106.802 196.433 105.961 196.505 104.746C196.612 103.494 196.702 101.688 196.773 99.3285C197.488 99.9364 198.311 100.437 199.24 100.83C200.17 101.224 201.01 101.51 201.761 101.688C201.582 104.477 201.296 106.676 200.903 108.285C200.545 109.859 199.902 110.967 198.972 111.611C198.078 112.29 196.719 112.63 194.896 112.63H191.195C188.978 112.63 187.387 112.219 186.422 111.396C185.492 110.574 185.027 109.036 185.027 106.784V93.7506ZM182.721 74.0131H188.889V82.7019C188.889 85.0976 188.656 87.6899 188.192 90.4789C187.762 93.2321 186.94 96.0032 185.724 98.7922C184.544 101.545 182.828 104.191 180.575 106.73C178.323 109.233 175.373 111.45 171.726 113.381C171.511 112.916 171.154 112.38 170.653 111.772C170.153 111.164 169.616 110.556 169.044 109.948C168.508 109.376 168.025 108.947 167.596 108.661C171.029 106.873 173.746 104.907 175.748 102.761C177.786 100.58 179.306 98.3274 180.307 96.0032C181.308 93.6791 181.952 91.3728 182.238 89.0844C182.56 86.796 182.721 84.6149 182.721 82.541V74.0131ZM152.31 71.9214H167.274V77.7139H152.31V71.9214ZM158.156 90.1034L164.271 82.8628V113.273H158.156V90.1034ZM164.432 84.5791C164.789 84.9009 165.325 85.4551 166.041 86.2418C166.756 87.0284 167.507 87.8865 168.293 88.8162C169.08 89.7101 169.813 90.5504 170.492 91.337C171.172 92.0879 171.636 92.6421 171.887 92.9997L167.918 98.0413C167.524 97.3262 167.024 96.5038 166.416 95.5741C165.808 94.6087 165.165 93.6254 164.485 92.6242C163.806 91.6231 163.144 90.6934 162.501 89.8353C161.893 88.9414 161.356 88.2084 160.892 87.6363L164.432 84.5791ZM165.451 71.9214H166.738L167.864 71.7069L171.243 74.0131C170.099 77.4457 168.579 80.7889 166.684 84.0428C164.825 87.2608 162.751 90.2107 160.463 92.8924C158.174 95.5384 155.85 97.7374 153.49 99.4894C153.347 98.8816 153.115 98.1307 152.793 97.2368C152.507 96.3429 152.185 95.4847 151.827 94.6623C151.506 93.84 151.22 93.2142 150.969 92.7851C153.043 91.4264 155.028 89.6922 156.923 87.5826C158.818 85.473 160.516 83.1667 162.018 80.6638C163.52 78.1609 164.664 75.64 165.451 73.1014V71.9214ZM156.44 65.8071L161.482 63.0181C162.447 64.0193 163.377 65.1635 164.271 66.4507C165.2 67.7022 165.88 68.8285 166.309 69.8297L161.053 72.9941C160.623 71.9929 159.98 70.813 159.122 69.4542C158.264 68.0955 157.37 66.8798 156.44 65.8071ZM211.791 104.96H254.43V110.914H211.791V104.96ZM206.105 67.3089H253.84V73.2086H206.105V67.3089ZM208.573 77.8212H214.955V113.381H208.573V77.8212ZM225.36 87.6363V90.318H241.933V87.6363H225.36ZM225.36 94.5551V97.3441H241.933V94.5551H225.36ZM225.36 80.7174V83.3991H241.933V80.7174H225.36ZM219.299 76.2121H248.316V101.849H219.299V76.2121ZM227.398 62.7499L234.961 62.9645C234.71 64.8595 234.424 66.7725 234.102 68.7033C233.781 70.5984 233.459 72.4041 233.137 74.1204C232.851 75.8009 232.547 77.2848 232.225 78.5721L225.789 78.143C226.075 76.7485 226.326 75.1573 226.54 73.3695C226.755 71.5817 226.933 69.7581 227.076 67.8988C227.255 66.0395 227.362 64.3232 227.398 62.7499ZM302.647 63.179L305.972 67.7916C303.97 68.1849 301.789 68.5424 299.429 68.8642C297.069 69.1503 294.602 69.4185 292.028 69.6688C289.489 69.8833 286.95 70.0621 284.411 70.2051C281.873 70.3124 279.406 70.4018 277.01 70.4733C276.974 69.7939 276.795 69.0073 276.474 68.1134C276.188 67.1837 275.919 66.4328 275.669 65.8607C278.029 65.7535 280.425 65.6283 282.856 65.4853C285.323 65.3065 287.737 65.1098 290.097 64.8953C292.492 64.645 294.763 64.3768 296.908 64.0908C299.054 63.8047 300.967 63.5008 302.647 63.179ZM275.455 76.3194H307.796V81.5219H275.455V76.3194ZM288.327 66.7725H294.119V90.6934H288.327V66.7725ZM288.434 93.9115H293.744V109.519H288.434V93.9115ZM278.834 71.3851L283.875 69.8833C284.34 70.7414 284.805 71.689 285.27 72.7259C285.734 73.7628 286.074 74.6389 286.289 75.354L281.033 77.1239C280.818 76.3373 280.496 75.4076 280.067 74.3349C279.638 73.2623 279.227 72.279 278.834 71.3851ZM299.268 68.8642L304.793 70.3124C304.006 71.8499 303.219 73.3695 302.433 74.8713C301.646 76.3373 300.913 77.5888 300.234 78.6257L295.514 77.2312C295.943 76.4803 296.39 75.6222 296.855 74.6567C297.355 73.6913 297.802 72.708 298.195 71.7069C298.625 70.6699 298.982 69.7224 299.268 68.8642ZM285.484 79.3766L290.419 81.0929C289.453 82.8449 288.237 84.5255 286.771 86.1345C285.341 87.7078 283.768 89.1201 282.052 90.3716C280.335 91.6231 278.547 92.66 276.688 93.4824C276.259 92.803 275.669 92.0164 274.918 91.1225C274.167 90.1928 273.47 89.4419 272.826 88.8698C274.543 88.262 276.205 87.4754 277.814 86.5099C279.423 85.5445 280.889 84.454 282.212 83.2382C283.535 81.9868 284.626 80.6995 285.484 79.3766ZM297.284 79.3766C298.142 80.5923 299.215 81.7901 300.502 82.9701C301.825 84.1143 303.255 85.1691 304.793 86.1345C306.33 87.0999 307.868 87.8865 309.405 88.4944C308.797 89.0307 308.1 89.7637 307.313 90.6934C306.527 91.5873 305.901 92.3918 305.436 93.107C303.827 92.2846 302.2 91.2476 300.555 89.9962C298.946 88.7447 297.445 87.3681 296.05 85.8663C294.656 84.3288 293.458 82.7734 292.457 81.2001L297.284 79.3766ZM277.814 91.4979H305.168V112.952H299.215V96.1641H283.446V113.166H277.814V91.4979ZM281.73 99.1676H300.824V103.619H281.73V99.1676ZM281.73 106.676H300.824V111.182H281.73V106.676ZM257.809 90.6934C259.918 90.1213 262.439 89.3704 265.371 88.4408C268.303 87.4754 271.253 86.5099 274.221 85.5445L275.24 91.2298C272.487 92.2309 269.68 93.2321 266.819 94.2333C263.995 95.1987 261.367 96.0926 258.935 96.915L257.809 90.6934ZM258.721 73.1014H275.133V79.0011H258.721V73.1014ZM264.352 62.9645H270.252V106.516C270.252 107.982 270.091 109.144 269.769 110.002C269.483 110.896 268.929 111.593 268.107 112.093C267.32 112.594 266.319 112.934 265.103 113.113C263.923 113.291 262.439 113.363 260.651 113.327C260.58 112.54 260.383 111.557 260.062 110.377C259.74 109.233 259.382 108.232 258.989 107.374C259.99 107.409 260.902 107.445 261.724 107.481C262.582 107.481 263.172 107.463 263.494 107.427C263.816 107.427 264.03 107.374 264.138 107.266C264.281 107.123 264.352 106.873 264.352 106.516V62.9645Z" fill="url(#paint1_linear_0_1)"/>
<path d="M62.375 65.75L50.5 77.625L38.625 65.75M31.5 77.625H69.5C72.1234 77.625 74.25 79.7516 74.25 82.375V108.5C74.25 111.123 72.1234 113.25 69.5 113.25H31.5C28.8766 113.25 26.75 111.123 26.75 108.5V82.375C26.75 79.7516 28.8766 77.625 31.5 77.625Z" stroke="url(#paint2_linear_0_1)" stroke-width="6" stroke-linecap="round" stroke-linejoin="round"/>
<path d="M50 96C48.35 96 46.9375 95.4125 45.7625 94.2375C44.5875 93.0625 44 91.65 44 90C44 88.35 44.5875 86.9375 45.7625 85.7625C46.9375 84.5875 48.35 84 50 84C51.65 84 53.0625 84.5875 54.2375 85.7625C55.4125 86.9375 56 88.35 56 90C56 91.65 55.4125 93.0625 54.2375 94.2375C53.0625 95.4125 51.65 96 50 96ZM38 108V103.8C38 102.95 38.2187 102.169 38.6562 101.456C39.0938 100.744 39.675 100.2 40.4 99.825C41.95 99.05 43.525 98.4688 45.125 98.0812C46.725 97.6937 48.35 97.5 50 97.5C51.65 97.5 53.275 97.6937 54.875 98.0812C56.475 98.4688 58.05 99.05 59.6 99.825C60.325 100.2 60.9062 100.744 61.3438 101.456C61.7812 102.169 62 102.95 62 103.8V108H38ZM41 105H59V103.8C59 103.525 58.9312 103.275 58.7938 103.05C58.6562 102.825 58.475 102.65 58.25 102.525C56.9 101.85 55.5375 101.344 54.1625 101.006C52.7875 100.669 51.4 100.5 50 100.5C48.6 100.5 47.2125 100.669 45.8375 101.006C44.4625 101.344 43.1 101.85 41.75 102.525C41.525 102.65 41.3438 102.825 41.2063 103.05C41.0688 103.275 41 103.525 41 103.8V105ZM50 93C50.825 93 51.5313 92.7063 52.1188 92.1187C52.7063 91.5312 53 90.825 53 90C53 89.175 52.7063 88.4688 52.1188 87.8813C51.5313 87.2938 50.825 87 50 87C49.175 87 48.4688 87.2938 47.8813 87.8813C47.2937 88.4688 47 89.175 47 90C47 90.825 47.2937 91.5312 47.8813 92.1187C48.4688 92.7063 49.175 93 50 93Z" fill="url(#paint3_linear_0_1)"/>
<defs>
<linearGradient id="paint0_linear_0_1" x1="-8.14815" y1="-2.91666" x2="150.343" y2="276.302" gradientUnits="userSpaceOnUse">
<stop offset="0.3" stop-color="#00FDE5"/>
<stop offset="1" stop-color="#006FFF"/>
</linearGradient>
<linearGradient id="paint1_linear_0_1" x1="95.8333" y1="90" x2="310.833" y2="90" gradientUnits="userSpaceOnUse">
<stop stop-color="#665000"/>
<stop offset="1" stop-color="#FFA600"/>
</linearGradient>
<linearGradient id="paint2_linear_0_1" x1="50.5" y1="65.75" x2="50.5" y2="113.25" gradientUnits="userSpaceOnUse">
<stop stop-color="#665000"/>
<stop offset="1" stop-color="#FFA600"/>
</linearGradient>
<linearGradient id="paint3_linear_0_1" x1="50" y1="84" x2="50" y2="108" gradientUnits="userSpaceOnUse">
<stop stop-color="white"/>
<stop offset="1" stop-color="#FFA600"/>
</linearGradient>
</defs>
</svg>
