<svg width="324" height="324" viewBox="0 0 324 324" fill="none" xmlns="http://www.w3.org/2000/svg">
<rect width="324" height="324" fill="url(#paint0_linear_0_1)"/>
<path d="M196 74L156 113.5L116 74M92 113.5H220C228.837 113.5 236 120.574 236 129.3V216.2C236 224.926 228.837 232 220 232H92C83.1634 232 76 224.926 76 216.2V129.3C76 120.574 83.1634 113.5 92 113.5Z" stroke="url(#paint1_linear_0_1)" stroke-width="18" stroke-linecap="round" stroke-linejoin="round"/>
<path d="M155.5 172C149.954 172 145.206 170.042 141.257 166.125C137.308 162.208 135.333 157.5 135.333 152C135.333 146.5 137.308 141.792 141.257 137.875C145.206 133.958 149.954 132 155.5 132C161.046 132 165.793 133.958 169.743 137.875C173.692 141.792 175.667 146.5 175.667 152C175.667 157.5 173.692 162.208 169.743 166.125C165.793 170.042 161.046 172 155.5 172ZM115.167 212V198C115.167 195.167 115.902 192.562 117.372 190.188C118.843 187.812 120.796 186 123.233 184.75C128.443 182.167 133.737 180.229 139.114 178.938C144.492 177.646 149.954 177 155.5 177C161.046 177 166.507 177.646 171.885 178.938C177.263 180.229 182.557 182.167 187.767 184.75C190.203 186 192.157 187.812 193.627 190.188C195.098 192.562 195.833 195.167 195.833 198V212H115.167ZM125.25 202H185.75V198C185.75 197.083 185.519 196.25 185.057 195.5C184.594 194.75 183.985 194.167 183.229 193.75C178.692 191.5 174.112 189.813 169.49 188.688C164.869 187.563 160.205 187 155.5 187C150.794 187 146.131 187.563 141.509 188.688C136.888 189.813 132.308 191.5 127.771 193.75C127.014 194.167 126.405 194.75 125.943 195.5C125.481 196.25 125.25 197.083 125.25 198V202ZM155.5 162C158.273 162 160.647 161.021 162.621 159.062C164.596 157.104 165.583 154.75 165.583 152C165.583 149.25 164.596 146.896 162.621 144.938C160.647 142.979 158.273 142 155.5 142C152.727 142 150.353 142.979 148.378 144.938C146.404 146.896 145.417 149.25 145.417 152C145.417 154.75 146.404 157.104 148.378 159.062C150.353 161.021 152.727 162 155.5 162Z" fill="url(#paint2_linear_0_1)"/>
<defs>
<linearGradient id="paint0_linear_0_1" x1="-8.25" y1="-5.25" x2="324" y2="324" gradientUnits="userSpaceOnUse">
<stop offset="0.3" stop-color="#00FDE5"/>
<stop offset="1" stop-color="#006FFF"/>
</linearGradient>
<linearGradient id="paint1_linear_0_1" x1="156" y1="74" x2="156" y2="232" gradientUnits="userSpaceOnUse">
<stop stop-color="#665000"/>
<stop offset="1" stop-color="#FFA600"/>
</linearGradient>
<linearGradient id="paint2_linear_0_1" x1="155.5" y1="132" x2="155.5" y2="212" gradientUnits="userSpaceOnUse">
<stop stop-color="white"/>
<stop offset="1" stop-color="#FFA600"/>
</linearGradient>
</defs>
</svg>
