<svg width="324" height="324" viewBox="0 0 324 324" fill="none" xmlns="http://www.w3.org/2000/svg">
<path d="M202 67L162 106.5L122 67M98 106.5H226C234.837 106.5 242 113.574 242 122.3V209.2C242 217.926 234.837 225 226 225H98C89.1634 225 82 217.926 82 209.2V122.3C82 113.574 89.1634 106.5 98 106.5Z" stroke="url(#paint0_linear_0_1)" stroke-width="18" stroke-linecap="round" stroke-linejoin="round"/>
<path d="M161.5 172C155.954 172 151.206 170.042 147.257 166.125C143.308 162.208 141.333 157.5 141.333 152C141.333 146.5 143.308 141.792 147.257 137.875C151.206 133.958 155.954 132 161.5 132C167.046 132 171.793 133.958 175.743 137.875C179.692 141.792 181.667 146.5 181.667 152C181.667 157.5 179.692 162.208 175.743 166.125C171.793 170.042 167.046 172 161.5 172ZM121.167 212V198C121.167 195.167 121.902 192.562 123.372 190.188C124.843 187.812 126.796 186 129.233 184.75C134.443 182.167 139.737 180.229 145.114 178.938C150.492 177.646 155.954 177 161.5 177C167.046 177 172.507 177.646 177.885 178.938C183.263 180.229 188.557 182.167 193.767 184.75C196.203 186 198.157 187.812 199.627 190.188C201.098 192.562 201.833 195.167 201.833 198V212H121.167ZM131.25 202H191.75V198C191.75 197.083 191.519 196.25 191.057 195.5C190.594 194.75 189.985 194.167 189.229 193.75C184.692 191.5 180.112 189.813 175.49 188.688C170.869 187.563 166.205 187 161.5 187C156.794 187 152.131 187.563 147.509 188.688C142.888 189.813 138.308 191.5 133.771 193.75C133.014 194.167 132.405 194.75 131.943 195.5C131.481 196.25 131.25 197.083 131.25 198V202ZM161.5 162C164.273 162 166.647 161.021 168.621 159.062C170.596 157.104 171.583 154.75 171.583 152C171.583 149.25 170.596 146.896 168.621 144.938C166.647 142.979 164.273 142 161.5 142C158.727 142 156.353 142.979 154.378 144.938C152.404 146.896 151.417 149.25 151.417 152C151.417 154.75 152.404 157.104 154.378 159.062C156.353 161.021 158.727 162 161.5 162Z" fill="url(#paint1_linear_0_1)"/>
<defs>
<linearGradient id="paint0_linear_0_1" x1="162" y1="67" x2="162" y2="225" gradientUnits="userSpaceOnUse">
<stop stop-color="#665000"/>
<stop offset="1" stop-color="#FFA600"/>
</linearGradient>
<linearGradient id="paint1_linear_0_1" x1="161.5" y1="132" x2="161.5" y2="212" gradientUnits="userSpaceOnUse">
<stop stop-color="white"/>
<stop offset="1" stop-color="#FFA600"/>
</linearGradient>
</defs>
</svg>
