<svg width="178" height="176" viewBox="0 0 178 176" fill="none" xmlns="http://www.w3.org/2000/svg">
<rect x="-67" y="-65" width="324" height="324" fill="url(#paint0_linear_0_1)"/>
<path d="M129 9L89 48.5L49 9M25 48.5H153C161.837 48.5 169 55.5739 169 64.3V151.2C169 159.926 161.837 167 153 167H25C16.1634 167 9 159.926 9 151.2V64.3C9 55.5739 16.1634 48.5 25 48.5Z" stroke="url(#paint1_linear_0_1)" stroke-width="18" stroke-linecap="round" stroke-linejoin="round"/>
<path d="M88.4998 107C82.954 107 78.2064 105.042 74.2571 101.125C70.3078 97.2083 68.3332 92.5 68.3332 87C68.3332 81.5 70.3078 76.7917 74.2571 72.875C78.2064 68.9583 82.954 67 88.4998 67C94.0457 67 98.7932 68.9583 102.743 72.875C106.692 76.7917 108.667 81.5 108.667 87C108.667 92.5 106.692 97.2083 102.743 101.125C98.7932 105.042 94.0457 107 88.4998 107ZM48.1665 147V133C48.1665 130.167 48.9017 127.562 50.3722 125.188C51.8427 122.812 53.7964 121 56.2332 119.75C61.4429 117.167 66.7366 115.229 72.1144 113.938C77.4922 112.646 82.954 112 88.4998 112C94.0457 112 99.5075 112.646 104.885 113.938C110.263 115.229 115.557 117.167 120.767 119.75C123.203 121 125.157 122.812 126.627 125.188C128.098 127.562 128.833 130.167 128.833 133V147H48.1665ZM58.2498 137H118.75V133C118.75 132.083 118.519 131.25 118.057 130.5C117.594 129.75 116.985 129.167 116.229 128.75C111.692 126.5 107.112 124.813 102.49 123.688C97.8689 122.563 93.2054 122 88.4998 122C83.7943 122 79.1307 122.563 74.5092 123.688C69.8877 124.813 65.3082 126.5 60.7707 128.75C60.0144 129.167 59.4052 129.75 58.9431 130.5C58.4809 131.25 58.2498 132.083 58.2498 133V137ZM88.4998 97C91.2728 97 93.6465 96.0208 95.6212 94.0625C97.5958 92.1042 98.5832 89.75 98.5832 87C98.5832 84.25 97.5958 81.8958 95.6212 79.9375C93.6465 77.9792 91.2728 77 88.4998 77C85.7269 77 83.3531 77.9792 81.3785 79.9375C79.4038 81.8958 78.4165 84.25 78.4165 87C78.4165 89.75 79.4038 92.1042 81.3785 94.0625C83.3531 96.0208 85.7269 97 88.4998 97Z" fill="url(#paint2_linear_0_1)"/>
<defs>
<linearGradient id="paint0_linear_0_1" x1="-75.25" y1="-70.25" x2="257" y2="259" gradientUnits="userSpaceOnUse">
<stop offset="0.3" stop-color="#00FDE5"/>
<stop offset="1" stop-color="#006FFF"/>
</linearGradient>
<linearGradient id="paint1_linear_0_1" x1="89" y1="9" x2="89" y2="167" gradientUnits="userSpaceOnUse">
<stop stop-color="#665000"/>
<stop offset="1" stop-color="#FFA600"/>
</linearGradient>
<linearGradient id="paint2_linear_0_1" x1="88.4998" y1="67" x2="88.4998" y2="147" gradientUnits="userSpaceOnUse">
<stop stop-color="white"/>
<stop offset="1" stop-color="#FFA600"/>
</linearGradient>
</defs>
</svg>
