<svg width="178" height="176" viewBox="0 0 178 176" fill="none" xmlns="http://www.w3.org/2000/svg">
<path d="M129 9L89 48.5L49 9M25 48.5H153C161.837 48.5 169 55.5739 169 64.3V151.2C169 159.926 161.837 167 153 167H25C16.1634 167 9 159.926 9 151.2V64.3C9 55.5739 16.1634 48.5 25 48.5Z" stroke="url(#paint0_linear_0_1)" stroke-width="18" stroke-linecap="round" stroke-linejoin="round"/>
<path d="M88.4998 114C82.954 114 78.2064 112.042 74.2571 108.125C70.3078 104.208 68.3332 99.5 68.3332 94C68.3332 88.5 70.3078 83.7917 74.2571 79.875C78.2064 75.9583 82.954 74 88.4998 74C94.0457 74 98.7932 75.9583 102.743 79.875C106.692 83.7917 108.667 88.5 108.667 94C108.667 99.5 106.692 104.208 102.743 108.125C98.7932 112.042 94.0457 114 88.4998 114ZM48.1665 154V140C48.1665 137.167 48.9017 134.562 50.3722 132.188C51.8427 129.812 53.7964 128 56.2332 126.75C61.4429 124.167 66.7366 122.229 72.1144 120.938C77.4922 119.646 82.954 119 88.4998 119C94.0457 119 99.5075 119.646 104.885 120.938C110.263 122.229 115.557 124.167 120.767 126.75C123.203 128 125.157 129.812 126.627 132.188C128.098 134.562 128.833 137.167 128.833 140V154H48.1665ZM58.2498 144H118.75V140C118.75 139.083 118.519 138.25 118.057 137.5C117.594 136.75 116.985 136.167 116.229 135.75C111.692 133.5 107.112 131.813 102.49 130.688C97.8689 129.563 93.2054 129 88.4998 129C83.7943 129 79.1307 129.563 74.5092 130.688C69.8877 131.813 65.3082 133.5 60.7707 135.75C60.0144 136.167 59.4052 136.75 58.9431 137.5C58.4809 138.25 58.2498 139.083 58.2498 140V144ZM88.4998 104C91.2728 104 93.6465 103.021 95.6212 101.062C97.5958 99.1042 98.5832 96.75 98.5832 94C98.5832 91.25 97.5958 88.8958 95.6212 86.9375C93.6465 84.9792 91.2728 84 88.4998 84C85.7269 84 83.3531 84.9792 81.3785 86.9375C79.4038 88.8958 78.4165 91.25 78.4165 94C78.4165 96.75 79.4038 99.1042 81.3785 101.062C83.3531 103.021 85.7269 104 88.4998 104Z" fill="url(#paint1_linear_0_1)"/>
<defs>
<linearGradient id="paint0_linear_0_1" x1="89" y1="9" x2="89" y2="167" gradientUnits="userSpaceOnUse">
<stop stop-color="#B3A500"/>
<stop offset="1" stop-color="#FFD700"/>
</linearGradient>
<linearGradient id="paint1_linear_0_1" x1="88.4998" y1="74" x2="88.4998" y2="154" gradientUnits="userSpaceOnUse">
<stop stop-color="#FFF680"/>
<stop offset="1" stop-color="#FFD700"/>
</linearGradient>
</defs>
</svg>
