<svg width="57" height="57" viewBox="0 0 57 57" fill="none" xmlns="http://www.w3.org/2000/svg">
<rect x="-22" y="-61" width="320" height="180" fill="url(#paint0_linear_0_1)"/>
<path d="M40.375 4.75L28.5 16.625L16.625 4.75M9.5 16.625H47.5C50.1234 16.625 52.25 18.7516 52.25 21.375V47.5C52.25 50.1234 50.1234 52.25 47.5 52.25H9.5C6.87665 52.25 4.75 50.1234 4.75 47.5V21.375C4.75 18.7516 6.87665 16.625 9.5 16.625Z" stroke="url(#paint1_linear_0_1)" stroke-width="6" stroke-linecap="round" stroke-linejoin="round"/>
<path d="M28 35C26.35 35 24.9375 34.4125 23.7625 33.2375C22.5875 32.0625 22 30.65 22 29C22 27.35 22.5875 25.9375 23.7625 24.7625C24.9375 23.5875 26.35 23 28 23C29.65 23 31.0625 23.5875 32.2375 24.7625C33.4125 25.9375 34 27.35 34 29C34 30.65 33.4125 32.0625 32.2375 33.2375C31.0625 34.4125 29.65 35 28 35ZM16 47V42.8C16 41.95 16.2187 41.1687 16.6562 40.4562C17.0938 39.7437 17.675 39.2 18.4 38.825C19.95 38.05 21.525 37.4688 23.125 37.0812C24.725 36.6937 26.35 36.5 28 36.5C29.65 36.5 31.275 36.6937 32.875 37.0812C34.475 37.4688 36.05 38.05 37.6 38.825C38.325 39.2 38.9062 39.7437 39.3438 40.4562C39.7812 41.1687 40 41.95 40 42.8V47H16ZM19 44H37V42.8C37 42.525 36.9312 42.275 36.7938 42.05C36.6562 41.825 36.475 41.65 36.25 41.525C34.9 40.85 33.5375 40.3438 32.1625 40.0063C30.7875 39.6688 29.4 39.5 28 39.5C26.6 39.5 25.2125 39.6688 23.8375 40.0063C22.4625 40.3438 21.1 40.85 19.75 41.525C19.525 41.65 19.3438 41.825 19.2063 42.05C19.0688 42.275 19 42.525 19 42.8V44ZM28 32C28.825 32 29.5313 31.7063 30.1188 31.1187C30.7063 30.5312 31 29.825 31 29C31 28.175 30.7063 27.4688 30.1188 26.8813C29.5313 26.2938 28.825 26 28 26C27.175 26 26.4688 26.2938 25.8813 26.8813C25.2937 27.4688 25 28.175 25 29C25 29.825 25.2937 30.5312 25.8813 31.1187C26.4688 31.7063 27.175 32 28 32Z" fill="url(#paint2_linear_0_1)"/>
<defs>
<linearGradient id="paint0_linear_0_1" x1="-30.1482" y1="-63.9167" x2="128.343" y2="215.302" gradientUnits="userSpaceOnUse">
<stop offset="0.3" stop-color="#00FDE5"/>
<stop offset="1" stop-color="#006FFF"/>
</linearGradient>
<linearGradient id="paint1_linear_0_1" x1="28.5" y1="4.75" x2="28.5" y2="52.25" gradientUnits="userSpaceOnUse">
<stop stop-color="#665000"/>
<stop offset="1" stop-color="#FFA600"/>
</linearGradient>
<linearGradient id="paint2_linear_0_1" x1="28" y1="23" x2="28" y2="47" gradientUnits="userSpaceOnUse">
<stop stop-color="white"/>
<stop offset="1" stop-color="#FFA600"/>
</linearGradient>
</defs>
</svg>
